<svg id="visual" viewBox="0 0 1440 100" width="1440" height="100" xmlns="http://www.w3.org/2000/svg" xmlns:xlink="http://www.w3.org/1999/xlink" version="1.1">
<path d="M0 50L14.2 55C28.3 60 56.7 70 84.8 74.5C113 79 141 78 169.2 76.2C197.3 74.3 225.7 71.7 254 69.3C282.3 67 310.7 65 339 64.7C367.3 64.3 395.7 65.7 423.8 66.8C452 68 480 69 508.2 72.5C536.3 76 564.7 82 593 82.3C621.3 82.7 649.7 77.3 677.8 69.3C706 61.3 734 50.7 762.2 47.5C790.3 44.3 818.7 48.7 847 55.3C875.3 62 903.7 71 931.8 76.7C960 82.3 988 84.7 1016.2 85.7C1044.3 86.7 1072.7 86.3 1101 86C1129.3 85.7 1157.7 85.3 1186 79.5C1214.3 73.7 1242.7 62.3 1270.8 57.7C1299 53 1327 55 1355.2 60.5C1383.3 66 1411.7 75 1425.8 79.5L1440 84L1440 101L1425.8 101C1411.7 101 1383.3 101 1355.2 101C1327 101 1299 101 1270.8 101C1242.7 101 1214.3 101 1186 101C1157.7 101 1129.3 101 1101 101C1072.7 101 1044.3 101 1016.2 101C988 101 960 101 931.8 101C903.7 101 875.3 101 847 101C818.7 101 790.3 101 762.2 101C734 101 706 101 677.8 101C649.7 101 621.3 101 593 101C564.7 101 536.3 101 508.2 101C480 101 452 101 423.8 101C395.7 101 367.3 101 339 101C310.7 101 282.3 101 254 101C225.7 101 197.3 101 169.2 101C141 101 113 101 84.8 101C56.7 101 28.3 101 14.2 101L0 101Z" fill="#fff" stroke-linecap="round" stroke-linejoin="miter"></path>
</svg>