<svg id="visual" viewBox="0 0 1440 1000" width="1440" height="1000" xmlns="http://www.w3.org/2000/svg" xmlns:xlink="http://www.w3.org/1999/xlink" version="1.1">
<path d="M0 780L40 813.8C80 847.7 160 915.3 240 947.8C320 980.3 400 977.7 480 959.2C560 940.7 640 906.3 720 907C800 907.7 880 943.3 960 933C1040 922.7 1120 866.3 1200 841.8C1280 817.3 1360 824.7 1400 828.3L1440 832L1440 1001L1400 1001C1360 1001 1280 1001 1200 1001C1120 1001 1040 1001 960 1001C880 1001 800 1001 720 1001C640 1001 560 1001 480 1001C400 1001 320 1001 240 1001C160 1001 80 1001 40 1001L0 1001Z" fill="#fff" stroke-linecap="round" stroke-linejoin="miter"></path>
</svg>